<svg width="64" height="64" viewBox="0 0 64 64" fill="none" xmlns="http://www.w3.org/2000/svg">
<g clip-path="url(#clip0_42_114)">
<g opacity="0.2">
<path d="M33.633 46.6938L26.3739 39.4347C23.744 36.8048 22.4292 35.4899 20.9084 35.0089C19.6268 34.6038 18.2515 34.6038 16.97 35.0089C15.4491 35.4899 14.1343 36.8048 11.5044 39.4347L4.16943 46.7696C7.24872 57.8289 15.3146 61.3877 32.002 61.3877C37.9769 61.3877 42.8464 60.9316 46.7771 59.8379L33.633 46.6938Z" fill="#0F113A"/>
<path d="M37.6266 42.7001L33.6328 46.6939L46.777 59.8381C52.9683 58.116 56.8311 54.8128 59.0186 49.2225L52.4962 42.7001C49.8663 40.0702 48.5514 38.7553 47.0307 38.2744C45.7491 37.8692 44.3738 37.8692 43.0922 38.2744C41.5713 38.7553 40.2564 40.0702 37.6266 42.7001Z" fill="#0F113A"/>
</g>
<path fill-rule="evenodd" clip-rule="evenodd" d="M10.5831 10.5819C6.8997 14.2649 5.2246 20.6262 5.2246 31.9999C5.2246 35.6238 5.39955 38.7608 5.76827 41.4761L9.73241 37.512C10.9829 36.2613 12.034 35.2102 12.9648 34.4223C13.9382 33.598 14.9541 32.9065 16.1818 32.5183C17.9759 31.9508 19.9015 31.9508 21.6957 32.5183C22.9234 32.9067 23.9393 33.5982 24.9127 34.4223C25.8436 35.2102 26.8944 36.2613 28.1451 37.512L33.6328 42.9994L35.8548 40.7774C37.1054 39.5267 38.1562 38.4756 39.0871 37.6877C40.0604 36.8634 41.0763 36.1719 42.3042 35.7838C44.0984 35.2162 46.0241 35.2162 47.8184 35.7838C49.0461 36.1721 50.0619 36.8636 51.0354 37.6877C51.9663 38.4756 53.0171 39.5267 54.2677 40.7774L57.7545 44.2641C58.4483 40.9822 58.7759 36.9518 58.7759 31.9999C58.7759 30.5573 59.9451 29.3876 61.3882 29.3876C62.8308 29.3876 64.0002 30.5573 64.0002 31.9999C64.0002 39.4096 63.3069 45.4315 61.4512 50.174C58.9343 56.6073 54.376 60.4355 47.477 62.3546C43.2178 63.5396 38.0795 64 32.0018 64C23.5586 64 16.8574 63.1158 11.8026 60.5564C6.55546 57.8994 3.35541 53.5846 1.65291 47.4704C0.469745 43.2219 0 38.0895 0 31.9999C0 20.5166 1.59184 12.184 6.88899 6.88745C12.1861 1.59092 20.5191 0 32.0016 0C33.4442 0 34.6139 1.16954 34.6139 2.6123C34.6139 4.05505 33.4442 5.2246 32.0016 5.2246C20.6285 5.22444 14.2667 6.89878 10.5831 10.5819ZM55.9052 49.8037L50.6491 44.5473C49.3031 43.2013 48.4052 42.3063 47.6593 41.6751C46.9376 41.0642 46.5357 40.8577 46.2429 40.765C45.474 40.5218 44.6487 40.5218 43.8798 40.765C43.5868 40.8577 43.1849 41.0641 42.4633 41.6751C41.7175 42.3063 40.8196 43.2013 39.4739 44.5473L37.3269 46.694L47.5092 56.8762C51.5506 55.4756 54.1799 53.2392 55.9052 49.8037ZM41.481 58.2365L24.5264 41.282C23.1805 39.936 22.2825 39.041 21.537 38.4098C20.8153 37.799 20.4133 37.5925 20.1204 37.4997C19.3514 37.2565 18.5262 37.2565 17.7573 37.4997C17.4643 37.5925 17.0622 37.7988 16.3407 38.4098C15.5951 39.041 14.6971 39.936 13.3512 41.282L7.13143 47.5018C8.55322 51.6046 10.8097 54.1976 14.1625 55.8956C18.0824 57.8801 23.7576 58.7756 32.0016 58.7756C35.6238 58.7756 38.7623 58.6035 41.481 58.2365Z" fill="#0F113A"/>
<path d="M51.5923 0C53.0349 0 54.2046 1.16954 54.2046 2.6123V9.79593H61.3882C62.8308 9.79593 64.0002 10.9655 64.0002 12.4082C64.0002 13.851 62.831 15.0205 61.3882 15.0205H54.2046V22.2042C54.2046 23.6469 53.0349 24.8164 51.5923 24.8164C50.1494 24.8164 48.98 23.6469 48.98 22.2042V15.0204H41.7964C40.3535 15.0204 39.1841 13.8508 39.1841 12.4081C39.1841 10.9653 40.3535 9.79593 41.7964 9.79593H48.98V2.6123C48.98 1.16954 50.1494 0 51.5923 0Z" fill="#0F113A"/>
</g>
<defs>
<clipPath id="clip0_42_114">
<rect width="64" height="64" fill="white"/>
</clipPath>
</defs>
</svg>
